<?xml version="1.0" encoding="UTF-8" standalone="no"?>
<!DOCTYPE svg PUBLIC "-//W3C//DTD SVG 1.0//EN" "http://www.w3.org/TR/2001/PR-SVG-20010719/DTD/svg10.dtd">
<svg width="65cm" height="24cm" viewBox="40 80 1300 480" xmlns="http://www.w3.org/2000/svg" xmlns:xlink="http://www.w3.org/1999/xlink">
  <defs/>
  <g id="Hintergrund">
    <rect style="fill: #d8e5e5; fill-opacity: 1; stroke-opacity: 1; stroke-width: 2.35099e-37; stroke: #000000" x="40" y="80" width="1300" height="480" rx="0" ry="0"/>
    <rect style="fill: #90ee90; fill-opacity: 1; stroke-opacity: 1; stroke-width: 2.35099e-37; stroke: #000000" x="60" y="260" width="1260" height="200" rx="0" ry="0"/>
    <g>
      <rect style="fill: #84bef6; fill-opacity: 1; stroke-opacity: 1; stroke-width: 2; stroke: #000000" x="660" y="180" width="140" height="54" rx="0" ry="0"/>
      <text font-size="12.8" style="fill: #000000; fill-opacity: 1; stroke: none;text-anchor:middle;font-family:sans-serif;font-style:normal;font-weight:normal" x="730" y="202.881">
        <tspan x="730" y="202.881">postgresql:all</tspan>
        <tspan x="730" y="218.881">M-A:none</tspan>
      </text>
    </g>
    <g>
      <rect style="fill: #ffa500; fill-opacity: 1; stroke-opacity: 1; stroke-width: 2; stroke: #000000" x="380" y="180" width="180" height="54" rx="0" ry="0"/>
      <text font-size="12.8" style="fill: #000000; fill-opacity: 1; stroke: none;text-anchor:middle;font-family:sans-serif;font-style:normal;font-weight:normal" x="470" y="202.881">
        <tspan x="470" y="202.881">postgresql-client:all</tspan>
        <tspan x="470" y="218.881">M-A:foreign</tspan>
      </text>
    </g>
    <g>
      <line style="fill: none; stroke-opacity: 1; stroke-width: 2; stroke: #000000" x1="470" y1="234.988" x2="470" y2="268.007"/>
      <polygon style="fill: #000000; fill-opacity: 1; stroke-opacity: 1; stroke-width: 2; stroke: #000000" fill-rule="evenodd" points="465,268.007 470,278.007 475,268.007 "/>
    </g>
    <g>
      <rect style="fill: #84bef6; fill-opacity: 1; stroke-opacity: 1; stroke-width: 2; stroke: #000000" x="620" y="280" width="224.85" height="70" rx="0" ry="0"/>
      <text font-size="12.8" style="fill: #000000; fill-opacity: 1; stroke: none;text-anchor:middle;font-family:sans-serif;font-style:normal;font-weight:normal" x="732.425" y="302.881">
        <tspan x="732.425" y="302.881">postgresql-NN:any</tspan>
        <tspan x="732.425" y="318.881">M-A:none</tspan>
        <tspan x="732.425" y="334.881">Provides: postgresql-contrib-NN</tspan>
      </text>
    </g>
    <g>
      <rect style="fill: #ffa500; fill-opacity: 1; stroke-opacity: 1; stroke-width: 2; stroke: #000000" x="360" y="280" width="220" height="60" rx="0" ry="0"/>
      <text font-size="12.8" style="fill: #000000; fill-opacity: 1; stroke: none;text-anchor:middle;font-family:sans-serif;font-style:normal;font-weight:normal" x="470" y="305.881">
        <tspan x="470" y="305.881">postgresql-client-NN:any</tspan>
        <tspan x="470" y="321.881">M-A:foreign</tspan>
      </text>
    </g>
    <g>
      <rect style="fill: #ffa500; fill-opacity: 1; stroke-opacity: 1; stroke-width: 2; stroke: #000000" x="640" y="480" width="180" height="54" rx="0" ry="0"/>
      <text font-size="12.8" style="fill: #000000; fill-opacity: 1; stroke: none;text-anchor:middle;font-family:sans-serif;font-style:normal;font-weight:normal" x="730" y="502.881">
        <tspan x="730" y="502.881">postgresql-common:all</tspan>
        <tspan x="730" y="518.881">M-A:foreign</tspan>
      </text>
    </g>
    <g>
      <rect style="fill: #ffa500; fill-opacity: 1; stroke-opacity: 1; stroke-width: 2; stroke: #000000" x="360" y="480" width="220" height="54" rx="0" ry="0"/>
      <text font-size="12.8" style="fill: #000000; fill-opacity: 1; stroke: none;text-anchor:middle;font-family:sans-serif;font-style:normal;font-weight:normal" x="470" y="502.881">
        <tspan x="470" y="502.881">postgresql-client-common:all</tspan>
        <tspan x="470" y="518.881">M-A:foreign</tspan>
      </text>
    </g>
    <g>
      <line style="fill: none; stroke-opacity: 1; stroke-width: 2; stroke: #000000" x1="730.628" y1="234.976" x2="731.37" y2="268.012"/>
      <polygon style="fill: #000000; fill-opacity: 1; stroke-opacity: 1; stroke-width: 2; stroke: #000000" fill-rule="evenodd" points="726.371,268.124 731.594,278.009 736.369,267.899 "/>
    </g>
    <g>
      <line style="fill: none; stroke-opacity: 1; stroke-width: 2; stroke: #000000" x1="731.97" y1="351.006" x2="730.493" y2="468.005"/>
      <polygon style="fill: #000000; fill-opacity: 1; stroke-opacity: 1; stroke-width: 2; stroke: #000000" fill-rule="evenodd" points="725.493,467.942 730.366,478.004 735.492,468.068 "/>
    </g>
    <g>
      <line style="fill: none; stroke-opacity: 1; stroke-width: 2; stroke: #000000" x1="470" y1="341.004" x2="470" y2="467.996"/>
      <polygon style="fill: #000000; fill-opacity: 1; stroke-opacity: 1; stroke-width: 2; stroke: #000000" fill-rule="evenodd" points="465,467.996 470,477.996 475,467.996 "/>
    </g>
    <g>
      <line style="fill: none; stroke-opacity: 1; stroke-width: 2; stroke: #000000" x1="619.008" y1="312.839" x2="592.005" y2="312.325"/>
      <polygon style="fill: #000000; fill-opacity: 1; stroke-opacity: 1; stroke-width: 2; stroke: #000000" fill-rule="evenodd" points="592.1,307.325 582.007,312.134 591.91,317.324 "/>
    </g>
    <g>
      <line style="fill: none; stroke-opacity: 1; stroke-width: 2; stroke: #000000" x1="638.998" y1="507" x2="591.997" y2="507"/>
      <polygon style="fill: #000000; fill-opacity: 1; stroke-opacity: 1; stroke-width: 2; stroke: #000000" fill-rule="evenodd" points="591.997,502 581.997,507 591.997,512 "/>
    </g>
    <g>
      <line style="fill: none; stroke-opacity: 1; stroke-width: 2; stroke: #000000" x1="680.616" y1="350.994" x2="649.334" y2="372.726"/>
      <polygon style="fill: #000000; fill-opacity: 1; stroke-opacity: 1; stroke-width: 2; stroke: #000000" fill-rule="evenodd" points="646.481,368.62 641.121,378.432 652.186,376.833 "/>
    </g>
    <g>
      <line style="fill: none; stroke-opacity: 1; stroke-width: 2; stroke: #000000" x1="511.553" y1="341.005" x2="553.653" y2="372.418"/>
      <polygon style="fill: #000000; fill-opacity: 1; stroke-opacity: 1; stroke-width: 2; stroke: #000000" fill-rule="evenodd" points="550.663,376.426 561.668,378.398 556.643,368.411 "/>
    </g>
    <g>
      <rect style="fill: #ffff00; fill-opacity: 1; stroke-opacity: 1; stroke-width: 2; stroke: #000000" x="540" y="380" width="120" height="54" rx="0" ry="0"/>
      <text font-size="12.8" style="fill: #000000; fill-opacity: 1; stroke: none;text-anchor:middle;font-family:sans-serif;font-style:normal;font-weight:normal" x="600" y="402.881">
        <tspan x="600" y="402.881">libpq5:amd64</tspan>
        <tspan x="600" y="418.881">M-A:same</tspan>
      </text>
    </g>
    <g>
      <rect style="fill: #84bef6; fill-opacity: 1; stroke-opacity: 1; stroke-width: 2; stroke: #000000" x="140" y="380" width="140" height="54" rx="0" ry="0"/>
      <text font-size="12.8" style="fill: #000000; fill-opacity: 1; stroke: none;text-anchor:middle;font-family:sans-serif;font-style:normal;font-weight:normal" x="210" y="402.881">
        <tspan x="210" y="402.881">libpq-dev:amd64</tspan>
        <tspan x="210" y="418.881">M-A:none</tspan>
      </text>
    </g>
    <g>
      <line style="fill: none; stroke-opacity: 1; stroke-width: 2; stroke: #000000" x1="280.995" y1="407" x2="528.003" y2="407"/>
      <polygon style="fill: #000000; fill-opacity: 1; stroke-opacity: 1; stroke-width: 2; stroke: #000000" fill-rule="evenodd" points="528.003,412 538.003,407 528.003,402 "/>
    </g>
    <g>
      <rect style="fill: #ffa500; fill-opacity: 1; stroke-opacity: 1; stroke-width: 2; stroke: #000000" x="1140" y="280" width="160.85" height="60" rx="0" ry="0"/>
      <text font-size="12.8" style="fill: #000000; fill-opacity: 1; stroke: none;text-anchor:middle;font-family:sans-serif;font-style:normal;font-weight:normal" x="1220.42" y="305.881">
        <tspan x="1220.42" y="305.881">postgresql-doc-NN:all</tspan>
        <tspan x="1220.42" y="321.881">M-A:foreign</tspan>
      </text>
    </g>
    <g>
      <rect style="fill: #ffa500; fill-opacity: 1; stroke-opacity: 1; stroke-width: 2; stroke: #000000" x="1140" y="180" width="160" height="54" rx="0" ry="0"/>
      <text font-size="12.8" style="fill: #000000; fill-opacity: 1; stroke: none;text-anchor:middle;font-family:sans-serif;font-style:normal;font-weight:normal" x="1220" y="202.881">
        <tspan x="1220" y="202.881">postgresql-doc:all</tspan>
        <tspan x="1220" y="218.881">M-A:foreign</tspan>
      </text>
    </g>
    <g>
      <line style="fill: none; stroke-opacity: 1; stroke-width: 2; stroke: #000000" x1="1220.12" y1="234.988" x2="1220.25" y2="268.007"/>
      <polygon style="fill: #000000; fill-opacity: 1; stroke-opacity: 1; stroke-width: 2; stroke: #000000" fill-rule="evenodd" points="1215.25,268.028 1220.29,278.007 1225.25,267.986 "/>
    </g>
    <g>
      <rect style="fill: #84bef6; fill-opacity: 1; stroke-opacity: 1; stroke-width: 2; stroke: #000000" x="840" y="180" width="180" height="54" rx="0" ry="0"/>
      <text font-size="12.8" style="fill: #000000; fill-opacity: 1; stroke: none;text-anchor:middle;font-family:sans-serif;font-style:normal;font-weight:normal" x="930" y="202.881">
        <tspan x="930" y="202.881">postgresql-contrib:all</tspan>
        <tspan x="930" y="218.881">M-A:none</tspan>
      </text>
    </g>
    <g>
      <line style="fill: none; stroke-opacity: 1; stroke-width: 2; stroke: #000000" x1="878.822" y1="234.976" x2="807.919" y2="273.733"/>
      <polygon style="fill: #000000; fill-opacity: 1; stroke-opacity: 1; stroke-width: 2; stroke: #000000" fill-rule="evenodd" points="805.521,269.345 799.145,278.529 810.318,278.12 "/>
    </g>
    <g>
      <rect style="fill: #84bef6; fill-opacity: 1; stroke-opacity: 1; stroke-width: 2; stroke: #000000" x="100" y="280" width="220" height="60" rx="0" ry="0"/>
      <text font-size="12.8" style="fill: #000000; fill-opacity: 1; stroke: none;text-anchor:middle;font-family:sans-serif;font-style:normal;font-weight:normal" x="210" y="305.881">
        <tspan x="210" y="305.881">postgresql-server-dev-NN:any</tspan>
        <tspan x="210" y="321.881">M-A:none</tspan>
      </text>
    </g>
    <g>
      <rect style="fill: #ffff00; fill-opacity: 1; stroke-opacity: 1; stroke-width: 2; stroke: #000000" x="100" y="180" width="220" height="54" rx="0" ry="0"/>
      <text font-size="12.8" style="fill: #000000; fill-opacity: 1; stroke: none;text-anchor:middle;font-family:sans-serif;font-style:normal;font-weight:normal" x="210" y="202.881">
        <tspan x="210" y="202.881">postgresql-server-dev-all:any</tspan>
        <tspan x="210" y="218.881">M-A:same</tspan>
      </text>
    </g>
    <g>
      <line style="fill: none; stroke-opacity: 1; stroke-width: 2; stroke: #000000" x1="210" y1="234.988" x2="210" y2="268.007"/>
      <polygon style="fill: #000000; fill-opacity: 1; stroke-opacity: 1; stroke-width: 2; stroke: #000000" fill-rule="evenodd" points="205,268.007 210,278.007 215,268.007 "/>
    </g>
    <g>
      <line style="fill: none; stroke-opacity: 1; stroke-width: 2; stroke: #000000" x1="210" y1="341.005" x2="210" y2="367.996"/>
      <polygon style="fill: #000000; fill-opacity: 1; stroke-opacity: 1; stroke-width: 2; stroke: #000000" fill-rule="evenodd" points="205,367.996 210,377.996 215,367.996 "/>
    </g>
    <text font-size="19.1234" style="fill: #000000; fill-opacity: 1; stroke: none;text-anchor:start;font-family:sans-serif;font-style:normal;font-weight:700" x="60" y="540">
      <tspan x="60" y="540">postgresql-common</tspan>
    </text>
    <text font-size="19.1234" style="fill: #000000; fill-opacity: 1; stroke: none;text-anchor:end;font-family:sans-serif;font-style:normal;font-weight:700" x="1200" y="440">
      <tspan x="1200" y="440">postgresql-NN</tspan>
    </text>
    <text font-size="12.7998" style="fill: #000000; fill-opacity: 1; stroke: none;text-anchor:start;font-family:sans-serif;font-style:normal;font-weight:normal" x="210" y="207">
      <tspan x="210" y="207"></tspan>
    </text>
    <g>
      <line style="fill: none; stroke-opacity: 1; stroke-width: 2; stroke: #000000" x1="320" y1="310" x2="349.256" y2="310"/>
      <polygon style="fill: #000000; fill-opacity: 1; stroke-opacity: 1; stroke-width: 2; stroke: #000000" fill-rule="evenodd" points="356.756,310 346.756,315 349.256,310 346.756,305 "/>
    </g>
    <text font-size="12.7998" style="fill: #000000; fill-opacity: 1; stroke: none;text-anchor:start;font-family:sans-serif;font-style:normal;font-weight:normal" x="210" y="310">
      <tspan x="210" y="310"></tspan>
    </text>
    <text font-size="12.7998" style="fill: #000000; fill-opacity: 1; stroke: none;text-anchor:start;font-family:sans-serif;font-style:normal;font-weight:normal" x="210" y="310">
      <tspan x="210" y="310"></tspan>
    </text>
    <text font-size="12.7998" style="fill: #000000; fill-opacity: 1; stroke: none;text-anchor:start;font-family:sans-serif;font-style:normal;font-weight:normal" x="690" y="360">
      <tspan x="690" y="360"></tspan>
    </text>
    <g>
      <rect style="fill: #84bef6; fill-opacity: 1; stroke-opacity: 1; stroke-width: 2; stroke: #000000" x="440" y="100" width="140" height="54" rx="0" ry="0"/>
      <text font-size="12.8" style="fill: #000000; fill-opacity: 1; stroke: none;text-anchor:middle;font-family:sans-serif;font-style:normal;font-weight:normal" x="510" y="122.881">
        <tspan x="510" y="122.881">postgresql-all:all</tspan>
        <tspan x="510" y="138.881">M-A:none</tspan>
      </text>
    </g>
    <g>
      <line style="fill: none; stroke-opacity: 1; stroke-width: 2; stroke: #000000" x1="439.01" y1="145.931" x2="324.363" y2="176.503"/>
      <polygon style="fill: #000000; fill-opacity: 1; stroke-opacity: 1; stroke-width: 2; stroke: #000000" fill-rule="evenodd" points="317.117,178.436 325.491,171.028 324.363,176.503 328.067,180.69 "/>
    </g>
    <g>
      <line style="fill: none; stroke-opacity: 1; stroke-width: 2; stroke: #000000" x1="543.132" y1="155.004" x2="682.402" y2="272.719"/>
      <polygon style="fill: #000000; fill-opacity: 1; stroke-opacity: 1; stroke-width: 2; stroke: #000000" fill-rule="evenodd" points="688.13,277.561 677.265,274.924 682.402,272.719 683.72,267.287 "/>
    </g>
    <g>
      <rect style="fill: #84bef6; fill-opacity: 1; stroke-opacity: 1; stroke-width: 2; stroke: #000000" x="880" y="280" width="224.85" height="70" rx="0" ry="0"/>
      <text font-size="12.8" style="fill: #000000; fill-opacity: 1; stroke: none;text-anchor:middle;font-family:sans-serif;font-style:normal;font-weight:normal" x="992.425" y="302.881">
        <tspan x="992.425" y="302.881">postgresql-plXX:any</tspan>
        <tspan x="992.425" y="318.881">M-A:none</tspan>
        <tspan x="992.425" y="334.881">Provides: postgresql-plXX</tspan>
      </text>
    </g>
    <g>
      <line style="fill: none; stroke-opacity: 1; stroke-width: 2; stroke: #000000" x1="879.024" y1="315" x2="855.562" y2="315"/>
      <polygon style="fill: #000000; fill-opacity: 1; stroke-opacity: 1; stroke-width: 2; stroke: #000000" fill-rule="evenodd" points="848.062,315 858.062,310 855.562,315 858.062,320 "/>
    </g>
    <g>
      <polyline style="fill: none; stroke-opacity: 1; stroke-width: 2; stroke: #000000" points="580,127 1040,127 1040,270.264 "/>
      <polygon style="fill: #000000; fill-opacity: 1; stroke-opacity: 1; stroke-width: 2; stroke: #000000" fill-rule="evenodd" points="1040,277.764 1035,267.764 1040,270.264 1045,267.764 "/>
    </g>
  </g>
</svg>
